<svg xmlns="http://www.w3.org/2000/svg" viewBox="0 0 64 64">
  <!-- Base map pin shape -->
  <path d="M32 4c-12.7 0-23 10.3-23 23 0 12.7 10.3 28 23 40 12.7-12 23-27.3 23-40 0-12.7-10.3-23-23-23z" fill="#0B5D28"/>
  
  <!-- White circle on top (sun/sky) -->
  <circle cx="32" cy="24" r="12" fill="#FFFFFF"/>
  
  <!-- Green farm fields -->
  <path d="M20 32c4-2 6-2.4 12-2.4 6 0 8 0.4 12 2.4" fill="none" stroke="#7AC143" stroke-width="2.5" stroke-linecap="round"/>
  <path d="M20 37c4-2 6-2.4 12-2.4 6 0 8 0.4 12 2.4" fill="none" stroke="#7AC143" stroke-width="2.5" stroke-linecap="round"/>
  <path d="M20 42c4-2 6-2.4 12-2.4 6 0 8 0.4 12 2.4" fill="none" stroke="#7AC143" stroke-width="2.5" stroke-linecap="round"/>
</svg> 