<svg xmlns="http://www.w3.org/2000/svg" viewBox="0 0 200 240">
  <!-- Base map pin shape -->
  <path d="M100 0C60.7 0 25 34.1 25 76.1c0 41.4 33.8 71.1 75 140 41.2-68.9 75-98.6 75-140C175 34.1 139.3 0 100 0z" fill="#0B5D28"/>
  
  <!-- White circle on top (sun/sky) -->
  <circle cx="100" cy="75" r="40" fill="#FFFFFF"/>
  
  <!-- Green farm fields -->
  <path d="M60 100c10-5 20-8 40-8 0 0 20 0 40 8" fill="none" stroke="#7AC143" stroke-width="8" stroke-linecap="round"/>
  <path d="M60 115c10-5 20-8 40-8 0 0 20 0 40 8" fill="none" stroke="#7AC143" stroke-width="8" stroke-linecap="round"/>
  <path d="M60 130c10-5 20-8 40-8 0 0 20 0 40 8" fill="none" stroke="#7AC143" stroke-width="8" stroke-linecap="round"/>
  
  <!-- Base shadow -->
  <ellipse cx="100" cy="225" rx="25" ry="7" fill="#7AC143"/>
</svg> 